<?xml version="1.0" standalone="no"?>
<!DOCTYPE svg PUBLIC "-//W3C//DTD SVG 20010904//EN"
 "http://www.w3.org/TR/2001/REC-SVG-20010904/DTD/svg10.dtd">
<svg version="1.0" xmlns="http://www.w3.org/2000/svg"
 width="25.000000pt" height="25.000000pt" viewBox="0 0 746.000000 720.000000"
 preserveAspectRatio="xMidYMid meet">

<g transform="translate(0.000000,720.000000) scale(0.100000,-0.100000)"
fill="#6e57e0" stroke="none">
<path d="M2686 6915 c-151 -31 -284 -89 -414 -178 -100 -69 -236 -215 -296
-318 -27 -46 -55 -94 -62 -105 -12 -21 -15 -21 -74 -7 -415 95 -851 -63 -1102
-401 -160 -215 -236 -489 -208 -745 20 -180 83 -356 177 -495 l40 -59 -74 -60
c-222 -178 -387 -462 -438 -751 -20 -116 -20 -339 1 -447 49 -259 165 -481
349 -665 l90 -91 -47 -99 c-307 -648 102 -1411 811 -1514 99 -15 309 -8 393
13 l57 14 26 -60 c121 -280 398 -512 710 -593 130 -35 351 -39 454 -10 310 86
530 337 571 650 7 56 10 892 8 2686 l-3 2605 -22 78 c-73 254 -263 454 -508
534 -68 22 -102 26 -225 29 -99 2 -167 -1 -214 -11z m350 -246 c38 -11 89 -32
114 -47 106 -61 201 -180 243 -301 l22 -66 3 -1052 c1 -579 0 -1053 -4 -1053
-4 0 -32 17 -62 37 -153 101 -358 136 -540 92 -125 -31 -270 -121 -352 -221
-95 -113 -160 -281 -160 -412 0 -79 -24 -177 -57 -238 -35 -65 -130 -153 -198
-184 -168 -77 -351 -46 -484 81 -95 91 -145 212 -140 339 3 94 1 102 -32 135
-25 25 -39 31 -74 31 -93 0 -126 -39 -133 -160 -19 -323 215 -628 533 -695
200 -42 416 10 578 139 146 118 247 331 247 525 0 118 51 232 144 319 98 93
232 135 357 113 94 -16 198 -71 255 -134 72 -80 104 -156 115 -279 6 -61 8
-625 7 -1373 l-3 -1270 -26 -71 c-66 -180 -194 -298 -375 -344 -86 -22 -148
-25 -244 -10 -329 52 -598 294 -683 613 -31 118 -30 385 1 501 37 135 86 221
177 311 147 147 335 217 625 232 162 8 200 32 200 126 0 43 -5 54 -36 85 l-35
35 -137 -6 c-238 -11 -403 -51 -572 -138 -336 -175 -502 -499 -488 -951 l4
-137 -50 -13 c-30 -8 -107 -13 -186 -13 -110 0 -150 5 -213 23 -264 76 -482
282 -568 538 -85 252 -44 521 115 748 33 48 41 67 40 101 -1 53 -15 73 -92
129 -183 135 -323 341 -384 566 -20 74 -23 107 -22 260 0 160 2 182 27 265 35
116 102 253 165 335 66 87 184 197 262 246 114 70 151 119 136 179 -3 13 -33
55 -65 92 -112 131 -181 263 -212 408 -19 92 -14 265 10 360 74 286 299 517
581 599 125 36 313 37 433 2 l54 -16 7 -81 c18 -205 108 -349 265 -429 109
-54 293 -77 351 -44 56 34 74 97 45 158 -22 45 -58 62 -148 70 -194 15 -271
104 -270 311 1 66 6 115 17 145 47 128 186 296 314 378 183 118 427 163 598
111z"/>
<path d="M1805 5027 c-201 -67 -325 -248 -313 -457 5 -89 21 -126 68 -158 50
-34 104 -26 149 24 l33 36 -7 80 c-6 74 -4 84 20 134 36 74 86 107 169 112 78
4 138 -24 181 -86 27 -39 30 -53 35 -143 5 -94 7 -102 33 -124 61 -53 154 -36
190 35 15 29 18 53 14 136 -3 87 -8 110 -35 167 -43 93 -117 169 -211 215 -70
35 -81 37 -180 39 -67 2 -121 -2 -146 -10z"/>
<path d="M4325 6915 c-279 -61 -503 -280 -576 -565 -19 -72 -19 -149 -19
-2715 0 -1603 3 -2660 9 -2691 60 -318 317 -564 641 -615 152 -24 373 9 540
81 216 91 430 295 531 503 21 43 27 48 49 43 261 -57 473 -45 687 40 162 63
323 183 436 324 79 98 167 269 196 380 82 309 31 630 -140 882 -22 31 -39 61
-38 65 0 4 32 33 70 63 216 170 389 469 440 760 7 41 13 136 13 210 0 74 -6
169 -13 210 -45 256 -182 517 -369 698 l-75 73 46 97 c155 326 137 704 -49
1013 -99 165 -305 347 -479 424 -202 89 -430 113 -654 68 -40 -8 -74 -13 -76
-11 -1 2 -21 41 -45 88 -152 305 -425 511 -763 575 -96 18 -279 18 -362 0z
m285 -235 c276 -44 513 -221 631 -473 112 -241 100 -610 -28 -825 -92 -155
-238 -256 -449 -312 l-79 -20 -357 357 -358 358 0 225 c0 292 17 369 109 490
121 161 315 234 531 200z m1338 -656 c363 -75 640 -389 659 -751 3 -57 4 -103
2 -103 -2 0 -200 196 -439 435 l-435 435 68 0 c37 0 103 -7 145 -16z m134
-511 c293 -293 498 -505 498 -516 0 -34 -63 -170 -114 -246 -44 -65 -51 -83
-51 -124 0 -54 7 -62 150 -176 140 -112 278 -332 326 -521 27 -108 36 -292 19
-397 -25 -158 -73 -280 -163 -416 l-52 -77 -420 420 -420 420 71 73 c80 81
132 172 159 278 24 90 16 269 -15 358 -98 277 -399 453 -685 400 -77 -14 -111
-32 -130 -69 -34 -66 -11 -146 51 -175 33 -16 45 -16 107 -5 132 24 252 -15
342 -111 65 -70 88 -126 93 -229 5 -110 -18 -177 -90 -255 -88 -97 -41 -127
-474 306 -211 211 -384 387 -384 391 0 5 5 8 11 8 26 0 166 67 235 111 210
138 339 332 397 599 16 75 21 132 21 273 1 110 5 177 11 177 5 0 234 -224 507
-497z m-258 -4346 c-34 -19 -239 18 -372 67 -34 13 -52 14 -82 6 -47 -13 -73
-44 -95 -113 -40 -123 -145 -281 -239 -359 -157 -132 -338 -201 -531 -201
-159 -1 -283 51 -389 163 -35 37 -75 92 -89 121 -59 121 -57 83 -57 1184 l0
1010 935 -935 c738 -738 931 -936 919 -943z"/>
<path d="M4084 2137 c-61 -56 -55 -149 13 -194 24 -16 62 -19 303 -23 271 -5
276 -5 331 -31 131 -62 197 -183 214 -399 8 -100 22 -132 69 -154 80 -38 161
2 180 89 8 38 -9 209 -30 289 -55 218 -218 386 -429 441 -46 12 -120 15 -337
15 l-278 0 -36 -33z"/>
</g>
</svg>
